<svg width="36" height="36" viewBox="0 0 36 36" fill="none" xmlns="http://www.w3.org/2000/svg">
<circle cx="18" cy="18" r="18" fill="#2D374B"/>
<path d="M18.0715 21.7767L21.6579 27.4056L24.971 25.4856L20.2608 18.0616L18.0715 21.7767Z" fill="#28A0F0"/>
<path d="M27.9879 23.2276L27.9855 21.6892L22.8389 13.6731L20.9295 16.9131L25.8978 24.9484L27.6942 23.9074C27.8704 23.7643 27.977 23.5543 27.9882 23.3277L27.9879 23.2276Z" fill="#28A0F0"/>
<path d="M6.42102 24.6785L8.95778 26.1403L17.3996 12.6019L15.9669 12.5641C14.7461 12.5469 13.4311 12.8643 12.8276 13.8495L8.03378 21.2797L6.42102 23.7577V24.6785Z" fill="white"/>
<path d="M22.2718 12.602L18.4958 12.6157L9.95287 26.7131L12.9389 28.4324L22.2718 12.602Z" fill="white"/>
<path d="M29.579 12.5823C29.5474 11.7926 29.1199 11.0697 28.4501 10.6488L19.0628 5.25037C18.4003 4.91679 17.5727 4.91636 16.909 5.25016C16.8305 5.28974 7.78003 10.5386 7.78003 10.5386C7.65477 10.5987 7.53411 10.6703 7.42063 10.7515C6.82276 11.18 6.45833 11.8459 6.4209 12.5774V23.7575L8.03365 21.2795L8.01957 12.653C8.02144 12.6214 8.02541 12.5904 8.03103 12.5597C8.0675 12.3568 8.18082 12.1757 8.35144 12.0533C8.39401 12.0229 17.5991 6.6946 17.6284 6.67998C17.8447 6.57132 18.1197 6.57003 18.3363 6.6766L27.6022 12.0064C27.8214 12.146 27.9588 12.3827 27.9711 12.6415V23.3276C27.9599 23.5542 27.8703 23.7642 27.6941 23.9073L18.298 29.3525C18.117 29.4179 17.9054 29.4142 17.726 29.3412L13.7508 27.0549L12.9388 28.4321L16.5111 30.4889C16.6293 30.5561 16.7345 30.6156 16.8209 30.6641C16.9546 30.7391 17.0458 30.7893 17.0779 30.8049C17.3318 30.9282 17.6972 31 18.0264 31C18.3282 31 18.6225 30.9446 18.901 30.8355L28.6597 25.184C29.2199 24.75 29.5494 24.0955 29.579 23.3865V12.5823Z" fill="#96BEDC"/>
</svg>
