 <svg
                xmlns="http://www.w3.org/2000/svg"
                width="1em"
                height="1em"
                fill="#FFF"
                viewBox="0 0 24 24"
              >
                <path d="M19.13 8.27c.625.626.627 1.64.006 2.267l-5.821 5.381-.006.006-.005.005-.02.02-.088.078a3.319 3.319 0 0 1-.32.243c-.276.185-.592.33-.876.33-.327 0-.646-.15-.903-.326a2.673 2.673 0 0 1-.374-.313l-.018-.019-.003-.004-.012-.013-5.826-5.388A1.61 1.61 0 0 1 4.87 8.27a1.599 1.599 0 0 1 2.265 0L12 12.851l4.857-4.572.009-.009a1.6 1.6 0 0 1 2.265 0Z"></path>
              </svg>