<svg width="36" height="36" viewBox="0 0 36 36" fill="none" xmlns="http://www.w3.org/2000/svg">
<circle cx="18" cy="18" r="18" fill="#181C25"/>
<path d="M29.983 16.6714L29.3031 15.5326L25.5807 9.27764H25.5637L25.4448 9.05667H24.085L18.7989 18.3541L24.17 27.6006H25.5297L25.5637 27.5496L30 19.9519H27.2635L24.9009 24.1502L21.5354 18.3371L24.8329 12.5241L27.2295 16.6544L29.983 16.6714Z" fill="#41E6AF"/>
<path d="M9.29745 15.1586L11.779 10.9263L10.9462 9.58357L10.3683 8.63173L6.11898 16.1275L6 16.3314L6.67989 17.5212H17.3711L22.7592 8.29178L22.0113 7L14.5326 7.017H14.4136L13.2238 7L14.4816 9.3796L19.3768 9.36261L16.0113 15.1586H9.29745Z" fill="#41E6AF"/>
<path d="M14.5836 10.2634C14.3966 10.2634 14.1926 10.2974 13.9887 10.3654C13.7677 10.4334 13.5467 10.5354 13.3428 10.6544C12.7649 11.0113 12.3569 11.5212 12.289 11.9972C12.255 12.2181 12.306 12.4051 12.4249 12.5411C12.4419 12.5751 12.4759 12.5921 12.4929 12.6261C12.5099 12.643 12.5269 12.643 12.5439 12.66C12.5609 12.677 12.5609 12.677 12.5779 12.694C12.6119 12.711 12.6289 12.728 12.6629 12.745C13.0198 12.915 13.5807 12.881 14.1246 12.6261L14.1416 12.6091C14.1926 12.5921 14.2436 12.5581 14.2946 12.5411C14.3456 12.5241 14.3796 12.4901 14.4306 12.4561C14.4816 12.4221 14.5326 12.3881 14.5836 12.3541C14.6346 12.3201 14.6686 12.2861 14.7196 12.2521L14.7535 12.2351C14.7875 12.2011 14.8215 12.1841 14.8555 12.1501C14.8725 12.1331 14.8725 12.1331 14.8895 12.1161C14.9235 12.0991 14.9405 12.0651 14.9575 12.0481C14.9745 12.0312 14.9915 12.0142 15.0085 11.9802C15.0255 11.9462 15.0595 11.9292 15.0765 11.8952C15.0935 11.8782 15.0935 11.8782 15.1105 11.8612C15.1275 11.8272 15.1615 11.8102 15.1785 11.7762L15.2125 11.7422C15.2295 11.7082 15.2465 11.6912 15.2635 11.6572C15.2635 11.6572 15.2635 11.6572 15.2635 11.6402L15.2805 11.6062C15.3145 11.5722 15.3314 11.5212 15.3484 11.4872C15.3654 11.4532 15.3824 11.4023 15.3994 11.3683L15.4164 11.3513C15.4164 11.3343 15.4334 11.3173 15.4334 11.3173C15.4334 11.3003 15.4334 11.3003 15.4504 11.2833C15.4504 11.2493 15.4674 11.2323 15.4674 11.1983C15.4674 11.1643 15.4844 11.1643 15.4844 11.1473C15.4844 11.1303 15.4844 11.1133 15.4844 11.1133C15.4844 11.0793 15.4844 11.0623 15.4844 11.0453V11.0113C15.4844 10.9773 15.4844 10.9603 15.4844 10.9263C15.4844 10.9093 15.4844 10.9093 15.4844 10.8923C15.4844 10.8753 15.4844 10.8583 15.4844 10.8583C15.4844 10.8414 15.4844 10.8414 15.4844 10.8244V10.8074C15.4844 10.7734 15.4674 10.7564 15.4504 10.7224C15.4334 10.6884 15.4164 10.6714 15.3994 10.6374C15.2805 10.3824 14.9575 10.2634 14.5836 10.2634Z" fill="#41E6AF"/>
<path d="M15.8244 11.5042C15.8244 11.5382 15.8074 11.5552 15.7904 11.5892C15.7904 11.6062 15.7904 11.6062 15.7734 11.6232C15.7564 11.6742 15.7394 11.7082 15.7054 11.7592C15.5184 12.1161 15.2125 12.4561 14.8385 12.728C14.7875 12.762 14.7365 12.796 14.6855 12.83C14.6346 12.864 14.5836 12.898 14.5326 12.915H14.5156C14.4986 12.932 14.4816 12.932 14.4646 12.949C14.4306 12.966 14.4136 12.983 14.3796 13H14.3626C14.3456 13 14.3286 13.017 14.3116 13.017C14.2776 13.034 14.2436 13.051 14.2096 13.051L14.1756 13.068C14.1756 13.068 14.1756 13.068 14.1586 13.068C14.1416 13.068 14.1246 13.085 14.1076 13.085C14.0737 13.102 14.0397 13.102 14.0057 13.119L13.9717 13.136H13.9547C13.9207 13.153 13.8867 13.153 13.8527 13.17C13.8357 13.17 13.8187 13.187 13.7847 13.187H13.7677C13.7337 13.187 13.6997 13.2039 13.6827 13.2039C13.6657 13.2039 13.6317 13.2039 13.6147 13.2209H13.5977C13.5807 13.2209 13.5637 13.2209 13.5467 13.2379C13.5297 13.2379 13.5127 13.2379 13.4957 13.2379C13.4448 13.2379 13.3768 13.2549 13.3258 13.2549H13.3088C13.2578 13.2549 13.2068 13.2549 13.1558 13.2549C13.1388 13.2549 13.1218 13.2549 13.1218 13.2549H13.1048C13.0708 13.2549 13.0368 13.2549 13.0028 13.2379C12.9858 13.2379 12.9688 13.2379 12.9518 13.2209C12.9178 13.2209 12.8839 13.2039 12.8499 13.2039C12.8329 13.2039 12.8159 13.187 12.7989 13.187L13.7337 14.6997L15.7394 14.6827L16.7762 12.847L15.8414 11.3173C15.8414 11.3343 15.8414 11.3513 15.8244 11.3683C15.8244 11.3853 15.8244 11.3853 15.8244 11.4022C15.8244 11.4192 15.8074 11.4362 15.8074 11.4702C15.8244 11.4872 15.8244 11.5042 15.8244 11.5042Z" fill="#41E6AF"/>
<path d="M26.4816 17.0283C26.5835 17.1813 26.6515 17.3683 26.7025 17.5892C26.7535 17.8102 26.7875 18.0481 26.7875 18.2861C26.7875 18.966 26.5665 19.5779 26.1926 19.8838C26.0226 20.0198 25.8357 20.0878 25.6487 20.0538C25.6147 20.0538 25.5807 20.0368 25.5467 20.0368C25.5297 20.0368 25.5127 20.0198 25.4957 20.0198C25.4787 20.0198 25.4617 20.0028 25.4447 20.0028C25.4107 19.9858 25.3767 19.9688 25.3598 19.9518C25.0198 19.7309 24.7648 19.2379 24.6969 18.643V18.626C24.6969 18.5751 24.6799 18.5241 24.6799 18.4561C24.6799 18.4051 24.6799 18.3541 24.6799 18.3031C24.6799 18.2351 24.6799 18.1841 24.6799 18.1161C24.6799 18.0651 24.6799 18.0142 24.6969 17.9632V17.9292C24.6969 17.8952 24.7139 17.8442 24.7139 17.8102C24.7139 17.7932 24.7139 17.7762 24.7139 17.7592C24.7139 17.7252 24.7309 17.6912 24.7309 17.6572C24.7309 17.6232 24.7479 17.6062 24.7479 17.5722C24.7649 17.5382 24.7649 17.5042 24.7818 17.4702C24.7818 17.4532 24.7988 17.4362 24.7988 17.4192C24.8158 17.3853 24.8158 17.3513 24.8328 17.3173L24.8498 17.2663C24.8668 17.2323 24.8838 17.2153 24.8838 17.1813C24.8838 17.1813 24.8838 17.1813 24.8838 17.1643L24.9008 17.1303C24.9178 17.0793 24.9518 17.0453 24.9688 17.0113C24.9858 16.9773 25.0198 16.9433 25.0368 16.9093L25.0538 16.8923C25.0708 16.8753 25.0708 16.8753 25.0878 16.8583C25.1048 16.8413 25.1048 16.8413 25.1048 16.8243C25.1218 16.8074 25.1388 16.7904 25.1558 16.7734C25.1728 16.7564 25.1898 16.7394 25.1898 16.7394C25.2068 16.7224 25.2068 16.7224 25.2238 16.7054C25.2408 16.6884 25.2578 16.6714 25.2748 16.6544L25.3088 16.6374C25.3258 16.6204 25.3598 16.6034 25.3767 16.5864C25.3937 16.5864 25.3937 16.5864 25.4107 16.5694C25.4277 16.5694 25.4447 16.5524 25.4447 16.5524C25.4447 16.5524 25.4617 16.5524 25.4617 16.5354H25.4787C25.5127 16.5354 25.5297 16.5184 25.5637 16.5184C25.5977 16.5184 25.6317 16.5184 25.6657 16.5184C26.0226 16.5014 26.2776 16.7054 26.4816 17.0283Z" fill="#41E6AF"/>
<path d="M24.7649 16.6204C24.7479 16.6374 24.7309 16.6714 24.7139 16.6884C24.7139 16.7054 24.6969 16.7054 24.6969 16.7224C24.6629 16.7564 24.6459 16.8073 24.6119 16.8413C24.3909 17.1813 24.272 17.6232 24.238 18.0821C24.238 18.1501 24.238 18.2011 24.238 18.2691C24.238 18.3201 24.238 18.3881 24.238 18.4391V18.4561C24.238 18.4731 24.238 18.5071 24.238 18.5241C24.238 18.5581 24.238 18.592 24.255 18.626V18.643C24.255 18.66 24.255 18.677 24.255 18.694C24.255 18.728 24.272 18.762 24.272 18.796V18.83C24.272 18.83 24.272 18.83 24.272 18.847C24.272 18.864 24.272 18.881 24.289 18.898C24.289 18.932 24.306 18.966 24.306 19L24.323 19.034V19.051C24.323 19.085 24.34 19.119 24.357 19.153C24.357 19.17 24.3739 19.1869 24.3739 19.2039V19.2209C24.3909 19.2549 24.3909 19.2719 24.4079 19.3059C24.4079 19.3229 24.4249 19.3399 24.4419 19.3739V19.3909C24.4419 19.4079 24.4589 19.4249 24.4589 19.4419C24.4759 19.4589 24.4759 19.4759 24.4759 19.4759C24.4929 19.5269 24.5269 19.5779 24.5609 19.6289L24.5779 19.6459C24.6119 19.6969 24.6289 19.7309 24.6629 19.7649C24.6629 19.7818 24.6799 19.7818 24.6799 19.7988L24.6969 19.8158C24.7139 19.8498 24.7479 19.8668 24.7649 19.9008C24.7819 19.9178 24.7819 19.9348 24.7989 19.9348C24.8329 19.9688 24.8499 19.9858 24.8669 20.0198C24.8839 20.0368 24.9009 20.0368 24.9009 20.0538H23.1162L22.0793 18.3371L23.0992 16.5014H24.8839C24.8669 16.5184 24.8669 16.5184 24.8499 16.5354L24.8329 16.5524C24.8159 16.5694 24.7989 16.5864 24.7649 16.6204Z" fill="#41E6AF"/>
<path d="M14.5836 26.3938C14.3966 26.3938 14.1926 26.3598 13.9887 26.2918C13.7677 26.2238 13.5467 26.1218 13.3428 26.0028C12.7649 25.6459 12.3569 25.136 12.289 24.6601C12.255 24.4391 12.306 24.2521 12.4249 24.1161C12.4419 24.0822 12.4759 24.0652 12.4929 24.0312C12.5099 24.0142 12.5269 24.0142 12.5439 23.9972C12.5609 23.9802 12.5609 23.9802 12.5779 23.9632C12.6119 23.9462 12.6289 23.9292 12.6629 23.9122C13.0198 23.7422 13.5807 23.7762 14.1246 24.0312L14.1416 24.0482C14.1926 24.0652 14.2436 24.0991 14.2946 24.1161C14.3456 24.1331 14.3796 24.1671 14.4306 24.2011C14.4816 24.2351 14.5326 24.2691 14.5836 24.3031C14.6346 24.3371 14.6686 24.3711 14.7196 24.4051L14.7535 24.4221C14.7875 24.4561 14.8215 24.4731 14.8555 24.5071C14.8725 24.5241 14.8725 24.5241 14.8895 24.5411C14.9235 24.5581 14.9405 24.5921 14.9575 24.6091C14.9745 24.6261 14.9915 24.6431 15.0085 24.6771C15.0255 24.711 15.0595 24.728 15.0765 24.762C15.0935 24.779 15.0935 24.779 15.1105 24.796C15.1275 24.83 15.1615 24.847 15.1785 24.881L15.2125 24.915C15.2295 24.949 15.2465 24.966 15.2635 25V25.017L15.2805 25.051C15.3145 25.085 15.3314 25.136 15.3484 25.17C15.3654 25.204 15.3824 25.255 15.3994 25.2889L15.4164 25.3059C15.4164 25.3229 15.4334 25.3399 15.4334 25.3399C15.4334 25.3569 15.4334 25.3569 15.4504 25.3739C15.4504 25.4079 15.4674 25.4249 15.4674 25.4589C15.4674 25.4929 15.4844 25.4929 15.4844 25.5099C15.4844 25.5269 15.4844 25.5439 15.4844 25.5439C15.4844 25.5779 15.4844 25.5949 15.4844 25.6119V25.6459C15.4844 25.6799 15.4844 25.6969 15.4844 25.7309C15.4844 25.7479 15.4844 25.7479 15.4844 25.7649C15.4844 25.7819 15.4844 25.7989 15.4844 25.7989C15.4844 25.8159 15.4844 25.8159 15.4844 25.8329V25.8499C15.4844 25.8839 15.4674 25.9008 15.4504 25.9348C15.4334 25.9688 15.4164 25.9858 15.3994 26.0198C15.2805 26.2748 14.9575 26.4108 14.5836 26.3938Z" fill="#41E6AF"/>
<path d="M15.8244 25.153C15.8244 25.119 15.8074 25.102 15.7904 25.068C15.7904 25.051 15.7904 25.051 15.7734 25.034C15.7564 24.983 15.7394 24.949 15.7054 24.898C15.5184 24.5411 15.2125 24.2011 14.8385 23.9292C14.7875 23.8952 14.7365 23.8612 14.6855 23.8272C14.6346 23.7932 14.5836 23.7592 14.5326 23.7422H14.5156C14.4986 23.7252 14.4816 23.7252 14.4646 23.7082C14.4306 23.6912 14.4136 23.6742 14.3796 23.6572H14.3626C14.3456 23.6572 14.3286 23.6402 14.3116 23.6402C14.2776 23.6232 14.2436 23.6062 14.2096 23.6062L14.1756 23.5892C14.1756 23.5892 14.1756 23.5892 14.1586 23.5892C14.1416 23.5892 14.1246 23.5722 14.1076 23.5722C14.0737 23.5552 14.0397 23.5552 14.0057 23.5382L13.9717 23.5212H13.9547C13.9207 23.5042 13.8867 23.5042 13.8527 23.4872C13.8357 23.4872 13.8187 23.4702 13.7847 23.4702H13.7677C13.7337 23.4702 13.6997 23.4533 13.6827 23.4533C13.6657 23.4533 13.6317 23.4533 13.6147 23.4363H13.5977C13.5807 23.4363 13.5637 23.4363 13.5467 23.4193C13.5297 23.4193 13.5127 23.4193 13.4957 23.4193C13.4448 23.4193 13.3768 23.4023 13.3258 23.4023H13.3088C13.2578 23.4023 13.2068 23.4023 13.1558 23.4023C13.1388 23.4023 13.1218 23.4023 13.1218 23.4023H13.1048C13.0708 23.4023 13.0368 23.4023 13.0028 23.4193C12.9858 23.4193 12.9688 23.4193 12.9518 23.4363C12.9178 23.4363 12.8839 23.4533 12.8499 23.4533C12.8329 23.4533 12.8159 23.4702 12.7989 23.4702L13.7337 21.9575L15.7394 21.9745L16.7762 23.8102L15.8414 25.3399C15.8414 25.3229 15.8414 25.3059 15.8244 25.2889C15.8244 25.2719 15.8244 25.2719 15.8244 25.255C15.8244 25.238 15.8074 25.221 15.8074 25.187C15.8244 25.17 15.8244 25.153 15.8244 25.153Z" fill="#41E6AF"/>
<path d="M19.3768 27.2946L14.4816 27.2776L13.7337 28.6884L13.2238 29.6572L14.5326 29.6402V29.6572L22.0113 29.6742L22.7592 28.3824L17.3711 19.153L6.67989 19.136L6 20.3258L6.13598 20.5467H6.11898L10.3683 28.0255L11.779 25.7309L9.29745 21.5156H16.0113L19.3768 27.2946Z" fill="#41E6AF"/>
</svg>
