<svg width="36" height="36" viewBox="0 0 36 36" fill="none" xmlns="http://www.w3.org/2000/svg">
<g clip-path="url(#clip0_7551_1354)">
<path d="M18 36C27.9411 36 36 27.9411 36 18C36 8.05887 27.9411 0 18 0C8.05887 0 0 8.05887 0 18C0 27.9411 8.05887 36 18 36Z" fill="black"/>
<path fill-rule="evenodd" clip-rule="evenodd" d="M19.4367 8.8496L20.1523 4.24333C19.445 4.13381 18.7211 4.07812 17.9999 4.07812H17.9888V13.4754H17.9999C18.3962 13.4754 18.7879 13.5264 19.1656 13.6266L20.3815 9.04732C20.0706 8.9647 19.755 8.89973 19.4376 8.8496H19.4367ZM15.7344 14.0824L13.3955 10.0534H13.3946C13.1189 10.2139 12.8497 10.3875 12.5927 10.575L9.79995 6.74833C10.3875 6.31954 11.013 5.93437 11.659 5.60303L13.7844 9.75171C14.216 9.53177 14.6633 9.34523 15.1237 9.19484L13.6777 4.76307C14.3691 4.53754 15.0838 4.36491 15.8031 4.25075L16.5465 8.92941C16.2319 8.97954 15.9191 9.04823 15.6109 9.13085L16.8212 13.6294C16.4416 13.7315 16.0759 13.8847 15.7344 14.0824ZM5.58636 11.6916L9.80838 13.8412C9.59119 14.2681 9.40655 14.7155 9.25896 15.1712L4.75104 13.7131C4.97472 13.0208 5.25594 12.3404 5.58636 11.6916ZM25.9438 13.3909L21.9158 15.7316C22.1144 16.0732 22.2666 16.4389 22.3687 16.8185L26.8673 15.6064C26.9499 15.9145 27.0186 16.2273 27.0687 16.5409L31.7474 15.7957C31.6332 15.0764 31.4606 14.3617 31.2341 13.6703L26.8033 15.1191C26.6529 14.6587 26.4664 14.2114 26.2455 13.7798L30.3933 11.6516C30.0619 11.0056 29.6767 10.381 29.247 9.79348L25.4213 12.588C25.6088 12.8452 25.7832 13.1143 25.9429 13.39L25.9438 13.3909ZM24.3006 5.58245L24.3011 5.58264V5.58171L24.3006 5.58245ZM22.2787 4.74825C22.9709 4.97189 23.6511 5.25212 24.3006 5.58245L22.1543 9.80557C21.7264 9.58845 21.279 9.40373 20.8233 9.25706L22.2787 4.74825ZM22.6192 9.97087L20.2534 14.076C20.5959 14.2736 20.9114 14.515 21.1927 14.7953L27.8269 8.13874C27.3127 7.62553 26.7531 7.14937 26.1655 6.72337L23.4295 10.4962C23.1687 10.3068 22.8985 10.1315 22.6192 9.97087ZM14.0778 15.7438L9.97355 13.3761H9.97263C10.1341 13.0977 10.3096 12.8276 10.4989 12.5668L6.72699 9.82884C7.15395 9.24131 7.63003 8.68261 8.14331 8.16841L14.798 14.8045C14.5177 15.0858 14.2754 15.4013 14.0778 15.7438ZM9.04915 15.6139L13.6276 16.8325H13.6266C13.5264 17.2102 13.4754 17.6029 13.4754 18.0001H4.07812C4.07812 17.2771 4.13474 16.5504 4.24519 15.8404L8.8515 16.5578C8.90065 16.2404 8.96653 15.9248 9.04915 15.6139ZM26.1916 22.1588L30.4136 24.3084C30.7441 23.6596 31.0252 22.9793 31.2489 22.2869L26.741 20.8288C26.5935 21.2846 26.4087 21.7319 26.1916 22.1588ZM20.2655 21.9176L22.6043 25.9466L22.6053 25.9476C22.881 25.787 23.1501 25.6134 23.4072 25.4259L26.1999 29.2526C25.6124 29.6814 24.9868 30.0665 24.3409 30.3979L22.2154 26.2492C21.7839 26.4691 21.3365 26.6557 20.8762 26.8061L22.3222 31.2379C21.6307 31.4634 20.9161 31.636 20.1968 31.7502L19.4534 27.0706C19.768 27.0205 20.0808 26.9518 20.3889 26.8691L19.1786 22.3706C19.5583 22.2685 19.9239 22.1153 20.2655 21.9176ZM10.0562 22.6091L14.0842 20.2684C13.8856 19.9268 13.7334 19.5611 13.6313 19.1815L9.13268 20.3936C9.05006 20.0855 8.98144 19.7727 8.9313 19.459L4.2517 20.2043C4.36586 20.9236 4.53849 21.6383 4.76494 22.3297L9.19582 20.8809C9.34615 21.3412 9.53269 21.7886 9.75361 22.2202L5.60583 24.3484C5.93717 24.9943 6.32234 25.619 6.75206 26.2065L10.5778 23.4119C10.3903 23.1548 10.2158 22.8857 10.0562 22.61V22.6091ZM11.6992 30.4175L11.6989 30.4173V30.4182L11.6992 30.4175ZM11.6992 30.4175C12.3488 30.7479 13.029 31.0281 13.7213 31.2517L15.1765 26.7429C14.7208 26.5962 14.2735 26.4116 13.8456 26.1944L11.6992 30.4175ZM13.3807 26.0291L13.3809 26.0288L13.3816 26.0291H13.3807ZM13.3809 26.0288L15.7465 21.9241C15.404 21.7264 15.0884 21.485 14.8072 21.2048L8.1739 27.8613C8.68809 28.3745 9.24771 28.8506 9.83524 29.2766L12.5713 25.5038C12.832 25.693 13.1018 25.8683 13.3809 26.0288ZM21.9232 20.2562L26.0273 22.6238V22.6247C25.8658 22.9032 25.6904 23.1733 25.5011 23.4341L29.273 26.1721C28.8461 26.7595 28.3699 27.3183 27.8566 27.8324L21.2029 21.1954C21.4832 20.9142 21.7254 20.5987 21.9232 20.2562ZM16.8342 22.3733V22.3736L16.8333 22.3733H16.8342ZM16.8342 22.3736L15.6184 26.9527C15.9293 27.0353 16.2449 27.1003 16.5623 27.1504L15.8468 31.7566C16.554 31.8662 17.2779 31.9219 17.999 31.9219H18.0102V22.5246H17.999C17.603 22.5246 17.2117 22.4736 16.8342 22.3736ZM22.3733 19.1675C22.4734 18.7901 22.5245 18.3978 22.5245 18.0009H31.9218C31.9218 18.7239 31.8652 19.4506 31.7547 20.1606L27.1494 19.4422C27.1002 19.7597 27.0343 20.0753 26.9517 20.3862L22.3733 19.1675Z" fill="white"/>
</g>
<defs>
<clipPath id="clip0_7551_1354">
<rect width="36" height="36" fill="white"/>
</clipPath>
</defs>
</svg>
