<svg width="36" height="36" viewBox="0 0 36 36" fill="none" xmlns="http://www.w3.org/2000/svg">
<circle cx="18" cy="18" r="18" fill="#0E122F"/>
<path d="M8.4472 16.553C8.17603 15.265 8.17603 13.8414 8.51499 12.5533C9.66744 7.33337 14.8874 4.07938 20.1751 5.23184C24.0392 6.11313 26.9543 9.23153 27.5644 13.0956C27.7 14.1125 27.7 15.1972 27.5644 16.2141C27.4966 16.4852 27.361 16.7564 27.1576 16.892C24.8527 18.4512 21.8699 18.519 19.565 16.9598L18.0058 15.9429C15.4297 14.1125 11.9724 14.1125 9.39628 15.9429C9.12511 16.0785 8.78615 16.2818 8.4472 16.553Z" fill="#EFB505"/>
<path d="M13.9384 15.875C15.5654 15.875 17.1246 16.3495 18.4126 17.2986C18.8872 17.6376 19.4295 17.9765 19.9041 18.3155C22.0734 19.8069 24.8528 19.8069 27.0222 18.3155C27.1577 18.2477 27.2933 18.1121 27.4289 18.0443C27.6323 17.841 28.039 17.841 28.2424 18.1121L28.3102 18.1799C28.5136 18.4511 28.4458 18.79 28.1746 18.9256C28.1746 18.9256 28.1068 18.9256 28.1068 18.9934C25.5307 21.0949 21.87 21.1627 19.1583 19.2646C18.0737 18.4511 16.989 17.5698 15.5654 17.2986C13.5994 16.7563 11.4979 17.163 9.80312 18.3833C9.53196 18.5189 9.193 18.7222 8.85404 18.9256C8.58288 19.129 8.17613 19.129 8.04054 18.79C7.97275 18.5189 7.97275 18.2477 8.17613 17.9765C9.73533 16.6207 11.8369 15.875 13.9384 15.875Z" fill="#4FC2C1"/>
<path d="M22.141 25.0948C22.141 26.0439 22.141 26.9252 22.141 27.8743C22.141 28.281 22.0054 28.6878 21.5309 28.62C21.0563 28.62 20.9885 28.281 20.9885 27.8743C20.9885 26.0439 20.9885 24.2135 20.9885 22.3832C20.9885 21.9764 21.1241 21.6375 21.5986 21.6375C22.0732 21.6375 22.2088 21.9764 22.2088 22.3832C22.141 23.2644 22.141 24.2135 22.141 25.0948Z" fill="#4FC2C1"/>
<path d="M11.4302 21.8404C11.4302 20.9591 11.4302 20.1456 11.4302 19.2643C11.4302 18.8576 11.498 18.3831 12.0403 18.3831C12.5148 18.3831 12.6504 18.7898 12.6504 19.1966C12.6504 21.0269 12.6504 22.7895 12.6504 24.6199C12.6504 25.0266 12.5148 25.3656 12.0403 25.3656C11.5658 25.3656 11.4302 25.0266 11.4302 24.5521C11.4302 23.6708 11.4302 22.7217 11.4302 21.8404Z" fill="#4FC2C1"/>
<path d="M24.5139 24.959C24.5139 25.7047 24.5139 26.5182 24.5139 27.2639C24.5139 27.6706 24.3784 28.0096 23.9038 28.0096C23.4293 28.0096 23.2937 27.6706 23.2937 27.2639C23.2937 25.7047 23.2937 24.1455 23.2937 22.5863C23.2937 22.1795 23.4293 21.9084 23.836 21.8406C24.3106 21.8406 24.4462 22.1117 24.4462 22.5863C24.5139 23.332 24.5139 24.1455 24.5139 24.959Z" fill="#4FC2C1"/>
<path d="M10.21 22.3828C10.21 22.9929 10.21 23.603 10.21 24.1454C10.21 24.5521 10.1422 24.9589 9.59987 25.0267C9.12533 25.0267 8.98975 24.6199 8.98975 24.2132C8.98975 22.9251 8.98975 21.7049 8.98975 20.4168C8.98975 20.0101 9.12533 19.6711 9.59987 19.6711C10.0744 19.6711 10.21 20.0101 10.21 20.4168C10.2778 21.027 10.21 21.7049 10.21 22.3828Z" fill="#4FC2C1"/>
<path d="M17.3958 21.9083C17.3958 22.5184 17.3958 23.1963 17.3958 23.8064C17.3958 24.2132 17.2602 24.5521 16.7857 24.5521C16.3111 24.5521 16.1755 24.2132 16.1755 23.8064C16.1755 22.5184 16.1755 21.2981 16.1755 20.0101C16.1755 19.6034 16.3111 19.2644 16.7857 19.2644C17.2602 19.2644 17.3958 19.6034 17.3958 20.0779C17.3958 20.688 17.3958 21.2981 17.3958 21.9083Z" fill="#4FC2C1"/>
<path d="M26.9545 22.9255C26.9545 23.2644 26.9545 23.6034 26.9545 23.9423C26.9545 24.3491 26.6834 24.6202 26.3444 24.5525C26.0732 24.4847 25.8699 24.2813 25.8021 24.0101C25.7343 23.2644 25.7343 22.5865 25.8021 21.8408C25.8699 21.5696 26.0732 21.3663 26.3444 21.2985C26.6834 21.2307 26.9545 21.5018 26.9545 21.9086C26.9545 22.2475 26.9545 22.5865 26.9545 22.9255Z" fill="#4FC2C1"/>
<path d="M19.7685 21.9082C19.7685 22.8573 19.7685 21.4337 19.7685 22.315C19.7685 22.7217 19.633 23.1285 19.1584 23.0607C18.6839 23.0607 18.6161 22.7217 18.6161 22.315C18.6161 20.4846 18.6161 23.2641 18.6161 21.4337C18.6161 21.0269 18.7517 20.688 19.2262 20.688C19.7008 20.688 19.8363 21.0269 19.8363 21.4337C19.7685 22.3828 19.7685 21.0269 19.7685 21.9082Z" fill="#4FC2C1"/>
<path d="M15.0231 21.8408C15.0231 22.7899 15.0231 29.3657 15.0231 30.247C15.0231 30.6537 14.8875 31.0605 14.4129 30.9927C13.9384 30.9927 13.8706 30.6537 13.8706 30.247C13.8706 28.4166 13.8706 20.8917 13.8706 19.0614C13.8706 18.6546 14.0062 18.3157 14.4807 18.3157C14.9553 18.3157 15.0909 18.6546 15.0909 19.0614C14.9553 20.0105 15.0231 20.8917 15.0231 21.8408Z" fill="#4FC2C1"/>
</svg>
