<svg width="36" height="36" viewBox="0 0 36 36" fill="none" xmlns="http://www.w3.org/2000/svg">
<g clip-path="url(#clip0_1512_5507)">
<path d="M18 36C27.9411 36 36 27.9411 36 18C36 8.05887 27.9411 0 18 0C8.05887 0 0 8.05887 0 18C0 27.9411 8.05887 36 18 36Z" fill="#FF0420"/>
<path d="M12.7536 22.784C11.6818 22.784 10.8037 22.5318 10.1192 22.0274C9.44371 21.5141 9.10596 20.7846 9.10596 19.8389C9.10596 19.6407 9.12849 19.3975 9.17349 19.1093C9.29064 18.4608 9.45724 17.6817 9.67339 16.7721C10.2858 14.2953 11.8665 13.0569 14.4154 13.0569C15.1089 13.0569 15.7303 13.174 16.2797 13.4081C16.8292 13.6332 17.2615 13.9755 17.5767 14.4349C17.8919 14.8852 18.0496 15.4256 18.0496 16.056C18.0496 16.2452 18.027 16.4839 17.982 16.7721C17.8469 17.5737 17.6847 18.3528 17.4956 19.1093C17.1804 20.3432 16.6355 21.2664 15.8609 21.8788C15.0863 22.4823 14.0506 22.784 12.7536 22.784ZM12.9428 20.8386C13.4472 20.8386 13.8749 20.69 14.2262 20.3927C14.5865 20.0955 14.8432 19.6407 14.9963 19.0283C15.2034 18.1816 15.3611 17.4431 15.4692 16.8126C15.5052 16.6235 15.5232 16.4299 15.5232 16.2317C15.5232 15.4121 15.0953 15.0023 14.2398 15.0023C13.7353 15.0023 13.303 15.1509 12.9428 15.4481C12.5915 15.7454 12.3393 16.2002 12.1863 16.8126C12.0241 17.4161 11.862 18.1546 11.6999 19.0283C11.6638 19.2083 11.6458 19.3975 11.6458 19.5956C11.6458 20.4243 12.0782 20.8386 12.9428 20.8386Z" fill="white"/>
<path d="M18.6699 22.6489C18.5708 22.6489 18.4942 22.6174 18.4402 22.5543C18.3951 22.4823 18.3817 22.4013 18.3997 22.3112L20.264 13.5297C20.282 13.4306 20.3316 13.3496 20.4126 13.2865C20.4937 13.2235 20.5792 13.192 20.6693 13.192H24.263C25.2627 13.192 26.0643 13.3991 26.6677 13.8134C27.2802 14.2277 27.5864 14.8266 27.5864 15.6102C27.5864 15.8354 27.5594 16.0696 27.5054 16.3127C27.2802 17.3485 26.8254 18.1141 26.1409 18.6095C25.4654 19.1048 24.5377 19.3525 23.3578 19.3525H21.534L20.9125 22.3112C20.8945 22.4103 20.8449 22.4913 20.7639 22.5543C20.6829 22.6174 20.5972 22.6489 20.5072 22.6489H18.6699ZM23.4524 17.4881C23.8306 17.4881 24.1594 17.3845 24.4386 17.1774C24.7268 16.9702 24.916 16.673 25.006 16.2857C25.033 16.1326 25.0466 15.9975 25.0466 15.8804C25.0466 15.6192 24.97 15.4211 24.8169 15.286C24.6637 15.1419 24.4026 15.0699 24.0333 15.0699H22.4121L21.8987 17.4881H23.4524Z" fill="white"/>
</g>
<defs>
<clipPath id="clip0_1512_5507">
<rect width="36" height="36" fill="white"/>
</clipPath>
</defs>
</svg>
