<svg width="36" height="36" viewBox="0 0 36 36" fill="none" xmlns="http://www.w3.org/2000/svg">
<circle cx="18" cy="18" r="18" fill="#0B101B"/>
<path d="M26.8229 22.1726L23.5881 17.719C23.2367 17.2351 22.7163 16.9452 22.1621 16.8812C22.036 16.8664 21.9233 16.7922 21.8602 16.6804C21.796 16.5685 21.7893 16.4327 21.84 16.314C22.0619 15.7958 22.0754 15.1943 21.8366 14.6442L19.6481 9.57879C19.3237 8.82664 18.5904 8.34155 17.7806 8.34155C16.9707 8.34155 16.2375 8.82778 15.9131 9.57879L13.7246 14.6442C13.4869 15.1943 13.4993 15.7958 13.7212 16.314C13.7719 16.4327 13.764 16.5685 13.7009 16.6804C13.6367 16.7922 13.5252 16.8664 13.3991 16.8812C12.8449 16.9452 12.3245 17.2351 11.9731 17.719L8.73822 22.1726C8.25839 22.8335 8.20996 23.7191 8.61432 24.4302C9.01981 25.1402 9.80149 25.5407 10.6057 25.4507L16.0291 24.8389C16.6182 24.7726 17.1262 24.4611 17.4573 24.0068C17.5328 23.9029 17.6533 23.8412 17.7806 23.8412C17.9079 23.8412 18.0273 23.9029 18.1038 24.0068C18.435 24.4611 18.943 24.7726 19.5321 24.8389L24.9554 25.4507C25.7597 25.5419 26.5413 25.1412 26.9468 24.4302C27.3512 23.7191 27.3027 22.8335 26.8229 22.1726ZM15.1393 15.2799L17.3312 10.2088C17.41 10.0274 17.5869 9.90979 17.7817 9.90979C17.9766 9.90979 18.1534 10.0274 18.2323 10.2088L20.4241 15.2799C20.4928 15.4397 20.4782 15.6246 20.3836 15.7707C20.289 15.9168 20.129 16.0047 19.9556 16.0047H15.6067C15.4344 16.0047 15.2733 15.9168 15.1787 15.7707C15.0841 15.6246 15.0706 15.4397 15.1393 15.2799ZM16.2645 23.0001C16.1868 23.1564 16.0359 23.2615 15.8647 23.2808L10.4356 23.8926C10.2419 23.9143 10.0527 23.8184 9.95469 23.6473C9.85669 23.476 9.86908 23.2627 9.98509 23.1028L13.2234 18.6446C13.3259 18.5042 13.4903 18.4244 13.6626 18.4346C13.835 18.4438 13.9904 18.5408 14.0771 18.6926L14.0805 18.6983L16.2488 22.5036L16.2521 22.5093C16.3389 22.661 16.3434 22.846 16.2656 23.0012L16.2645 23.0001ZM18.2266 21.2789C18.1343 21.4398 17.9653 21.5403 17.7806 21.5403C17.597 21.5403 17.4269 21.441 17.3346 21.2801L15.6687 18.357C15.5763 18.1961 15.5763 17.9963 15.6687 17.8354C15.761 17.6745 15.93 17.574 16.1147 17.574H19.4453C19.6289 17.574 19.799 17.6722 19.8914 17.8343C19.9837 17.9963 19.9837 18.1949 19.8914 18.3559L18.2266 21.2789ZM25.6077 23.6473C25.5096 23.8184 25.3216 23.9155 25.1267 23.8938L19.6976 23.282C19.5264 23.2627 19.3755 23.1576 19.2978 23.0012C19.2201 22.8449 19.2246 22.66 19.3113 22.5093L19.3147 22.5036L21.4829 18.6983L21.4863 18.6926C21.573 18.5408 21.7285 18.4438 21.9008 18.4346C22.0731 18.4255 22.2375 18.5042 22.34 18.6446L25.5784 23.1028C25.6943 23.2627 25.7045 23.476 25.6077 23.6473Z" fill="#E81899"/>
</svg>
