<svg width="28" height="28" viewBox="0 0 28 28" fill="none" xmlns="http://www.w3.org/2000/svg">
<path d="M14 28C21.732 28 28 21.732 28 14C28 6.26801 21.732 0 14 0C6.26801 0 0 6.26801 0 14C0 21.732 6.26801 28 14 28Z" fill="#F0B90B"/>
<path d="M9.01271 7.55564L13.9442 4.68506L18.8757 7.55564L17.0627 8.61611L13.9442 6.806L10.8258 8.61611L9.01271 7.55564ZM18.8757 11.1759L17.0627 10.1154L13.9442 11.9255L10.8258 10.1154L9.01271 11.1759V13.2968L12.1312 15.1069V18.7271L13.9442 19.7876L15.7573 18.7271V15.1069L18.8757 13.2968V11.1759ZM18.8757 16.917V14.7961L17.0627 15.8566V17.9775L18.8757 16.917ZM20.163 17.6666L17.0446 19.4768V21.5977L21.9761 18.7271V12.986L20.163 14.0465V17.6666ZM18.35 9.36576L20.163 10.4262V12.5472L21.9761 11.4867V9.36576L20.163 8.30528L18.35 9.36576ZM12.1312 20.2447V22.3656L13.9442 23.4261L15.7573 22.3656V20.2447L13.9442 21.3052L12.1312 20.2447ZM9.01271 16.917L10.8258 17.9775V15.8566L9.01271 14.7961V16.917ZM12.1312 9.36576L13.9442 10.4262L15.7573 9.36576L13.9442 8.30528L12.1312 9.36576ZM7.72541 10.4262L9.53847 9.36576L7.72541 8.30528L5.91235 9.36576V11.4867L7.72541 12.5472V10.4262ZM7.72541 14.0465L5.91235 12.986V18.7271L10.8439 21.5977V19.4768L7.72541 17.6666V14.0465Z" fill="white"/>
</svg>
