<svg width="36" height="36" viewBox="0 0 36 36" fill="none" xmlns="http://www.w3.org/2000/svg">
<path d="M18 36C27.9411 36 36 27.9411 36 18C36 8.05887 27.9411 0 18 0C8.05887 0 0 8.05887 0 18C0 27.9411 8.05887 36 18 36Z" fill="#13B5EC"/>
<path fill-rule="evenodd" clip-rule="evenodd" d="M19.35 14.5125L23.4 12.15V16.875L19.35 14.5125ZM23.4 24.6375L18 27.7875L12.6 24.6375V19.125L18 22.275L23.4 19.125V24.6375ZM12.6 12.15L16.65 14.5125L12.6 16.875V12.15ZM18.675 15.6375L22.725 18L18.675 20.3625V15.6375ZM17.325 20.3625L13.275 18L17.325 15.6375V20.3625ZM22.725 11.025L18 13.725L13.275 11.025L18 8.2125L22.725 11.025ZM11.25 10.575V25.3125L18 29.1375L24.75 25.3125V10.575L18 6.75L11.25 10.575Z" fill="white"/>
</svg>
