<svg width="37" height="37" viewBox="0 0 37 37" fill="none" xmlns="http://www.w3.org/2000/svg">
<path d="M36.0901 18.0901C36.0901 28.0312 28.0312 36.0901 18.0901 36.0901C8.14896 36.0901 0.0900879 28.0312 0.0900879 18.0901C0.0900879 8.14896 8.14896 0.0900879 18.0901 0.0900879C28.0312 0.0900879 36.0901 8.14896 36.0901 18.0901Z" fill="url(#paint0_linear_4820_15427)"/>
<path d="M23.2959 21.9743L28.3884 19.0337C28.6581 18.8779 28.825 18.5883 28.825 18.2767V12.3962C28.825 12.0853 28.6574 11.795 28.3884 11.6392L23.2959 8.69862C23.0261 8.5428 22.6917 8.54354 22.422 8.69862L17.3294 11.6392C17.0597 11.795 16.8928 12.0853 16.8928 12.3962V22.9055L13.3217 24.967L9.75047 22.9055V18.7816L13.3217 16.72L15.6772 18.0797V15.3133L13.7582 14.2057C13.6259 14.1293 13.4745 14.0888 13.3209 14.0888C13.1673 14.0888 13.0159 14.1293 12.8844 14.2057L7.79179 17.1463C7.52206 17.3021 7.35522 17.5917 7.35522 17.9033V23.7837C7.35522 24.0946 7.5228 24.3849 7.79179 24.5408L12.8844 27.4813C13.1534 27.6364 13.4885 27.6364 13.7582 27.4813L18.8508 24.5415C19.1205 24.3857 19.2874 24.0954 19.2874 23.7845V13.2752L19.352 13.2385L22.8586 11.2137L26.4297 13.2752V17.3991L22.8586 19.4607L20.5067 18.1025V20.8689L22.422 21.975C22.6917 22.1301 23.0261 22.1301 23.2959 21.975V21.9743Z" fill="white"/>
<defs>
<linearGradient id="paint0_linear_4820_15427" x1="-8.8162" y1="1.6247" x2="31.867" y2="26.5209" gradientUnits="userSpaceOnUse">
<stop stop-color="#A229C5"/>
<stop offset="1" stop-color="#7B3FE4"/>
</linearGradient>
</defs>
</svg>
