<svg width="36" height="36" viewBox="0 0 36 36" fill="none" xmlns="http://www.w3.org/2000/svg">
<circle cx="18" cy="18" r="18" fill="#FFEEDA"/>
<path d="M26.9859 22.5216V9.56274C26.9618 8.47781 26.1059 7.60986 25.021 7.60986H11.4955C8.57822 7.65808 6.22754 10.0449 6.22754 12.9742C6.22754 13.9627 6.49274 14.8066 6.90261 15.554C7.24014 16.1688 7.78261 16.7474 8.31302 17.1934C8.45768 17.314 8.38535 17.2658 8.84343 17.5551C9.48233 17.9408 10.2056 18.1337 10.2056 18.1337V25.8849C10.2177 26.2466 10.2659 26.6082 10.3503 26.9337C10.6516 28.0186 11.4111 28.8625 12.4358 29.2723C12.8697 29.4411 13.3519 29.5616 13.8703 29.5616L24.6714 29.5978C26.8292 29.5978 28.5771 27.8499 28.5771 25.6921C28.5771 24.3781 27.9503 23.2329 26.9859 22.5216Z" fill="#FFEEDA"/>
<path d="M27.2391 25.7522C27.1909 27.1385 26.0578 28.2475 24.6714 28.2475L17.2336 28.2234C17.8243 27.5363 18.186 26.6442 18.186 25.6798C18.186 24.1489 17.2698 23.1001 17.2698 23.1001H24.6714C26.0939 23.1001 27.2391 24.2574 27.2391 25.6798V25.7522Z" fill="#EBC28E"/>
<path d="M9.00023 16.0722C8.14434 15.2645 7.5416 14.2157 7.5416 12.962V12.8294C7.61393 10.7078 9.36188 8.99601 11.4835 8.92368H25.009C25.3586 8.93574 25.6479 9.18889 25.6479 9.55053V20.9905C25.9613 21.0508 26.106 21.087 26.4074 21.1955C26.6364 21.2798 26.9739 21.4727 26.9739 21.4727V9.55053C26.9498 8.4656 26.0939 7.59766 25.009 7.59766H11.4835C8.56626 7.64588 6.21558 10.0327 6.21558 12.962C6.21558 14.6618 6.98708 16.1204 8.26489 17.1451C8.34928 17.2174 8.43366 17.3018 8.6627 17.3018C9.06051 17.3018 9.33777 16.9883 9.32571 16.6388C9.31366 16.3494 9.19311 16.2409 9.00023 16.0722Z" fill="#190602"/>
<path d="M24.6715 21.7622H14.0633C13.3521 21.7622 12.7734 22.3529 12.7734 23.0641V24.583C12.7976 25.2822 13.4003 25.897 14.0995 25.897H14.883V24.583H14.0995V23.0883C14.0995 23.0883 14.2923 23.0883 14.5334 23.0883C15.8715 23.0883 16.86 24.3299 16.86 25.668C16.86 26.8493 15.7871 28.3562 13.991 28.2356C12.3877 28.1272 11.5318 26.7047 11.5318 25.668V12.7332C11.5318 12.1546 11.0617 11.6724 10.471 11.6724H9.41016V12.9984H10.1937V25.668C10.1576 28.2477 12.026 29.5496 13.9789 29.5496L24.6715 29.5858C26.8293 29.5858 28.5773 27.8378 28.5773 25.68C28.5773 23.5222 26.8293 21.7622 24.6715 21.7622ZM27.2392 25.7524C27.191 27.1387 26.0578 28.2477 24.6715 28.2477L17.2337 28.2236C17.8244 27.5365 18.186 26.6444 18.186 25.68C18.186 24.1491 17.2699 23.1003 17.2699 23.1003H24.6715C26.094 23.1003 27.2392 24.2576 27.2392 25.68V25.7524Z" fill="#190602"/>
<path d="M21.899 13.2273H13.8223V11.9133H21.899C22.2245 11.9133 22.4776 12.1785 22.4776 12.492V12.6487C22.4776 12.9742 22.2124 13.2273 21.899 13.2273Z" fill="#190602"/>
<path d="M21.899 19.4595H13.8223V18.1455H21.899C22.2245 18.1455 22.4776 18.4107 22.4776 18.7241V18.8809C22.4776 19.1943 22.2124 19.4595 21.899 19.4595Z" fill="#190602"/>
<path d="M23.2972 16.3494H13.8101V15.0354H23.2972C23.6227 15.0354 23.8758 15.3006 23.8758 15.614V15.7707C23.8879 16.0842 23.6227 16.3494 23.2972 16.3494Z" fill="#190602"/>
</svg>
