<svg width="36" height="36" viewBox="0 0 36 36" fill="none" xmlns="http://www.w3.org/2000/svg">
<g clip-path="url(#clip0_1613_5236)">
<path d="M7.52441 16.8961C7.18648 17.4368 7.56946 18.1126 8.20025 18.1126H17.3242C17.617 18.1126 17.8198 18.4506 17.6395 18.6984L8.69587 33.0038C8.60576 33.1614 8.403 33.2065 8.24531 33.0939C3.28911 29.8949 0 24.3079 0 17.9775C0 8.22278 7.74969 0.292866 17.4143 0C17.6621 0 17.8198 0.270338 17.6846 0.473091L7.52441 16.8961ZM28.0926 3.08636C27.9349 2.99625 27.7322 3.0413 27.6421 3.17647L18.8335 17.3016C18.6758 17.5494 18.8561 17.8874 19.1489 17.8874H28.2728C28.9036 17.8874 29.2866 18.5857 28.9487 19.1039L18.6308 35.5945C18.5181 35.7747 18.6533 35.9775 18.8561 35.9775C28.408 35.5269 36 27.6646 36 18C36 11.8048 32.8686 6.33041 28.0926 3.08636Z" fill="url(#paint0_linear_1613_5236)"/>
</g>
<defs>
<linearGradient id="paint0_linear_1613_5236" x1="15.5475" y1="7.43438" x2="21.8711" y2="34.6023" gradientUnits="userSpaceOnUse">
<stop offset="0.1799" stop-color="#00FFD5"/>
<stop offset="0.2324" stop-color="#00F8D5"/>
<stop offset="0.3098" stop-color="#00E4D5"/>
<stop offset="0.4026" stop-color="#00C3D5"/>
<stop offset="0.5073" stop-color="#0096D5"/>
<stop offset="0.622" stop-color="#005CD5"/>
<stop offset="0.7432" stop-color="#0016D5"/>
<stop offset="0.7796" stop-color="#0000D5"/>
</linearGradient>
<clipPath id="clip0_1613_5236">
<rect width="36" height="36" fill="white"/>
</clipPath>
</defs>
</svg>
