<svg width="36" height="36" viewBox="0 0 36 36" fill="none" xmlns="http://www.w3.org/2000/svg">
<circle cx="18" cy="18" r="18" fill="url(#paint0_linear_8316_28883)"/>
<mask id="mask0_8316_28883" style="mask-type:alpha" maskUnits="userSpaceOnUse" x="25" y="9" width="4" height="6">
<path d="M25.6627 9.21606H28.8394V14.8307H25.6627V9.21606Z" fill="black"/>
</mask>
<g mask="url(#mask0_8316_28883)">
<path d="M28.4655 9.21606H23.5996C23.3929 9.21606 23.2253 9.38365 23.2253 9.59037V14.4564C23.2253 14.6631 23.3929 14.8307 23.5996 14.8307H28.4655C28.6722 14.8307 28.8398 14.6631 28.8398 14.4564V9.59037C28.8398 9.38365 28.6722 9.21606 28.4655 9.21606Z" fill="white" fill-opacity="0.5"/>
</g>
<mask id="mask1_8316_28883" style="mask-type:alpha" maskUnits="userSpaceOnUse" x="25" y="20" width="4" height="7">
<path d="M25.6627 20.4446H28.8394V26.0592H25.6627V20.4446Z" fill="black"/>
</mask>
<g mask="url(#mask1_8316_28883)">
<path d="M28.4655 20.4446H23.5996C23.3929 20.4446 23.2253 20.6122 23.2253 20.8189V25.6849C23.2253 25.8916 23.3929 26.0592 23.5996 26.0592H28.4655C28.6722 26.0592 28.8398 25.8916 28.8398 25.6849V20.8189C28.8398 20.6122 28.6722 20.4446 28.4655 20.4446Z" fill="white" fill-opacity="0.5"/>
</g>
<path d="M18.0598 14.8445H13.217C13.0112 14.8445 12.8445 15.0101 12.8445 15.2143V20.0227C12.8445 20.227 13.0112 20.3925 13.217 20.3925H18.0598C18.2656 20.3925 18.4323 20.227 18.4323 20.0227V15.2143C18.4323 15.0101 18.2656 14.8445 18.0598 14.8445Z" fill="white"/>
<path d="M12.4543 9.21558H7.58841C7.38169 9.21558 7.21411 9.38316 7.21411 9.58988V14.4559C7.21411 14.6626 7.38169 14.8302 7.58841 14.8302H12.4543C12.661 14.8302 12.8286 14.6626 12.8286 14.4559V9.58988C12.8286 9.38316 12.661 9.21558 12.4543 9.21558Z" fill="white"/>
<path d="M23.6814 9.21558H18.8155C18.6087 9.21558 18.4412 9.38316 18.4412 9.58988V14.4559C18.4412 14.6626 18.6087 14.8302 18.8155 14.8302H23.6814C23.8881 14.8302 24.0556 14.6626 24.0556 14.4559V9.58988C24.0556 9.38316 23.8881 9.21558 23.6814 9.21558Z" fill="white"/>
<path d="M12.4543 20.4446H7.58841C7.38169 20.4446 7.21411 20.6122 7.21411 20.8189V25.6849C7.21411 25.8916 7.38169 26.0592 7.58841 26.0592H12.4543C12.661 26.0592 12.8286 25.8916 12.8286 25.6849V20.8189C12.8286 20.6122 12.661 20.4446 12.4543 20.4446Z" fill="white"/>
<path d="M23.6814 20.4446H18.8155C18.6087 20.4446 18.4412 20.6122 18.4412 20.8189V25.6849C18.4412 25.8916 18.6087 26.0592 18.8155 26.0592H23.6814C23.8881 26.0592 24.0556 25.8916 24.0556 25.6849V20.8189C24.0556 20.6122 23.8881 20.4446 23.6814 20.4446Z" fill="white"/>
<defs>
<linearGradient id="paint0_linear_8316_28883" x1="6" y1="5" x2="28" y2="33" gradientUnits="userSpaceOnUse">
<stop stop-color="#313232"/>
<stop offset="1" stop-color="#191919"/>
</linearGradient>
</defs>
</svg>
